HIERARCHY
ROOT Hips
{
 OFFSET 0.000000 0.000000 0.000000
 CHANNELS 6 Xposition Yposition Zposition Yrotation Xrotation Zrotation
 JOINT Chest
 {
  OFFSET 0.000000 9.585900 0.002600
  CHANNELS 3 Yrotation Xrotation Zrotation
  JOINT Chest2
  {
   OFFSET 0.000000 9.601200 -0.005300
   CHANNELS 3 Yrotation Xrotation Zrotation
   JOINT Chest3
   {
    OFFSET 0.000000 9.561800 0.000000
    CHANNELS 3 Yrotation Xrotation Zrotation
    JOINT Chest4
    {
     OFFSET 0.000000 9.552100 0.000000
     CHANNELS 3 Yrotation Xrotation Zrotation
     JOINT Neck
     {
      OFFSET 0.000000 14.453000 0.000000
      CHANNELS 3 Yrotation Xrotation Zrotation
      JOINT Head
      {
       OFFSET 0.000000 8.936500 -0.011300
       CHANNELS 3 Yrotation Xrotation Zrotation
       End Site
       {
        OFFSET 0.000000 17.073600 -0.006000
       }
      }
     }
     JOINT RightCollar
     {
      OFFSET -2.921100 9.558500 0.000000
      CHANNELS 3 Yrotation Xrotation Zrotation
      JOINT RightShoulder
      {
       OFFSET -13.519700 0.000000 0.000000
       CHANNELS 3 Yrotation Xrotation Zrotation
       JOINT RightElbow
       {
        OFFSET 0.000000 -29.696600 0.000000
        CHANNELS 3 Yrotation Xrotation Zrotation
        JOINT RightWrist
        {
         OFFSET 0.000000 -24.004700 0.000000
         CHANNELS 3 Yrotation Xrotation Zrotation
         End Site
         {
          OFFSET 0.000000 -17.728500 0.000000
         }
        }
       }
      }
     }
     JOINT LeftCollar
     {
      OFFSET 2.921100 9.558500 0.000000
      CHANNELS 3 Yrotation Xrotation Zrotation
      JOINT LeftShoulder
      {
       OFFSET 13.519700 0.000000 0.000000
       CHANNELS 3 Yrotation Xrotation Zrotation
       JOINT LeftElbow
       {
        OFFSET 0.000000 -29.696600 0.000000
        CHANNELS 3 Yrotation Xrotation Zrotation
        JOINT LeftWrist
        {
         OFFSET 0.000000 -24.004700 0.000000
         CHANNELS 3 Yrotation Xrotation Zrotation
         End Site
         {
          OFFSET 0.000000 -17.728500 0.000000
         }
        }
       }
      }
     }
    }
   }
  }
 }
 JOINT RightHip
 {
  OFFSET -7.771700 -0.012900 -0.001300
  CHANNELS 3 Yrotation Xrotation Zrotation
  JOINT RightKnee
  {
   OFFSET 0.000000 -40.869800 0.001200
   CHANNELS 3 Yrotation Xrotation Zrotation
   JOINT RightAnkle
   {
    OFFSET 0.000000 -39.717900 0.002100
    CHANNELS 3 Yrotation Xrotation Zrotation
    JOINT RightToe
    {
     OFFSET 0.000000 -4.965400 11.033500
     CHANNELS 3 Yrotation Xrotation Zrotation
     End Site
     {
      OFFSET 0.000000 -1.423100 5.872300
     }
    }
   }
  }
 }
 JOINT LeftHip
 {
  OFFSET 7.771700 -0.012900 -0.001300
  CHANNELS 3 Yrotation Xrotation Zrotation
  JOINT LeftKnee
  {
   OFFSET 0.000000 -40.869800 0.001200
   CHANNELS 3 Yrotation Xrotation Zrotation
   JOINT LeftAnkle
   {
    OFFSET 0.000000 -39.717900 0.002100
    CHANNELS 3 Yrotation Xrotation Zrotation
    JOINT LeftToe
    {
     OFFSET 0.000000 -4.965400 11.033500
     CHANNELS 3 Yrotation Xrotation Zrotation
     End Site
     {
      OFFSET 0.000000 -1.423100 5.872300
     }
    }
   }
  }
 }
}
MOTION
Frames: 7
Frame Time: 0.008333
0.000000 85.388000 0.000000 0.000000 -5.767877 0.000000 0.000000 11.653817 0.000000 0.000000 -5.885947 0.000000 0.000000 -0.000000 0.000000 0.000000 -0.000000 0.000000 0.000000 12.528835 0.000000 0.000000 0.711642 0.000000 0.000000 -0.000000 0.000000 0.000000 0.000000 -90.000000 0.000000 -2.309062 0.000000 0.000000 2.309062 0.000000 0.000000 -0.000000 0.000000 0.000000 -0.000000 90.000000 0.000000 -2.309062 0.000000 0.000000 2.309062 0.000000 0.000000 8.520406 0.000000 0.000000 1.905762 0.000000 -0.000000 -4.658285 0.000000 0.000000 -0.000000 0.000000 0.000000 8.520406 0.000000 0.000000 1.905762 0.000000 -0.000000 -4.658285 0.000000 0.000000 -0.000000 0.000000
-124.165825 62.096900 19.575222 178.085973 -52.222594 -0.284332 4.413200 25.585778 1.876563 0.561654 4.124996 0.300012 0.908098 6.579335 0.498872 3.225864 20.906244 2.016312 2.591119 16.271383 -1.462412 5.364395 -5.460523 -3.672291 3.741910 6.095955 4.719860 1.064807 -11.377333 -19.955353 -157.150821 -70.769976 -171.761355 20.421214 -0.039290 3.012022 -9.792419 1.454405 -0.911694 -9.623750 -0.873432 16.348611 -137.956108 -82.368563 123.004500 3.808735 -7.572999 7.982370 2.542455 -14.671927 -7.833975 -1.934374 58.948209 -6.362008 -0.056140 -7.556571 9.104465 0.270392 -0.755215 0.110281 -5.467386 -11.444076 -0.842594 34.416228 73.240364 37.451973 0.571895 -10.321766 -7.262978 0.442967 0.966929 0.188843
-124.165605 62.098990 19.577752 178.050178 -52.251640 -0.274728 4.370029 25.597726 1.879096 0.554335 4.127614 0.302539 0.896534 6.583278 0.502593 3.164752 20.914798 2.034658 2.580792 16.326198 -1.524917 5.326556 -5.359815 -3.737853 3.732683 6.128914 4.698154 0.980975 -11.254924 -19.904969 -157.392149 -70.606668 -171.579170 20.447382 -0.021129 3.020337 -9.857389 1.487816 -1.013847 -9.689863 -0.986108 16.372007 -138.019824 -82.345034 123.121278 3.778627 -7.558597 7.909996 2.556427 -14.639343 -7.812512 -1.930607 58.933352 -6.357949 -0.059129 -7.561639 9.101417 0.272076 -0.741784 0.111899 -5.456702 -11.408932 -0.840973 34.449801 73.229361 37.489350 0.595398 -10.320215 -7.264857 0.422678 0.968918 0.179095
-124.166187 62.101205 19.580701 178.018603 -52.284779 -0.265528 4.359182 25.620558 1.888084 0.510396 4.117299 0.309110 0.884007 6.585776 0.505728 3.124551 20.921187 2.039581 2.560678 16.386667 -1.560144 5.298590 -5.246587 -3.792825 3.710591 6.173355 4.697212 0.912674 -11.150457 -19.861950 -157.648609 -70.445477 -171.390608 20.473722 -0.009282 3.025153 -9.932100 1.538241 -1.097384 -9.743419 -1.099055 16.385879 -138.032886 -82.313855 123.192501 3.750910 -7.549772 7.825046 2.566352 -14.605568 -7.790210 -1.929871 58.924602 -6.363267 -0.066759 -7.566250 9.101068 0.279571 -0.739148 0.115974 -5.450844 -11.370959 -0.840420 34.480097 73.220175 37.520371 0.613440 -10.317807 -7.269649 0.408198 0.969199 0.173493
-124.162966 62.102507 19.584820 177.981672 -52.314017 -0.275711 4.361461 25.636883 1.921765 0.464286 4.103494 0.313799 0.871100 6.586952 0.508462 3.083488 20.925868 2.043236 2.545164 16.451192 -1.589061 5.276673 -5.125941 -3.837514 3.692967 6.229054 4.699446 0.859276 -11.061980 -19.828450 -157.915645 -70.284487 -171.198482 20.500445 -0.003845 3.022186 -9.997694 1.599823 -1.181420 -9.782423 -1.213314 16.393110 -138.021114 -82.278682 123.239150 3.725083 -7.542394 7.727803 2.573190 -14.577297 -7.744710 -1.932166 58.909442 -6.365902 -0.065894 -7.558495 9.097048 0.286065 -0.743907 0.117949 -5.443620 -11.335526 -0.815031 34.473199 73.223371 37.531244 0.623454 -10.321199 -7.288084 0.415667 0.969661 0.173465
-124.159601 62.102491 19.590048 177.922890 -52.336299 -0.269203 4.335025 25.632697 1.940160 0.495478 4.115894 0.310338 0.814153 6.572292 0.516052 3.041119 20.929710 2.045427 2.532773 16.517662 -1.612168 5.258422 -5.001899 -3.872430 3.679522 6.296477 4.706067 0.819075 -10.990517 -19.805490 -158.185154 -70.122473 -171.008616 20.528610 -0.003981 3.014723 -10.052406 1.671122 -1.262805 -9.807075 -1.331482 16.392317 -138.021318 -82.244666 123.292210 3.697298 -7.532106 7.633170 2.592998 -14.555745 -7.700656 -1.970635 58.884062 -6.398285 -0.041701 -7.548639 9.095393 0.277197 -0.757924 0.118668 -5.424690 -11.307382 -0.786460 34.479115 73.225291 37.541674 0.651699 -10.324948 -7.289284 0.397362 0.972211 0.163168
-124.157836 62.104419 19.593609 177.878689 -52.376103 -0.262776 4.220021 25.622217 1.914178 0.523553 4.130113 0.309102 0.821580 6.579445 0.514643 2.997467 20.933116 2.046170 2.522299 16.585605 -1.629470 5.241614 -4.875431 -3.897220 3.669017 6.374847 4.716098 0.791525 -10.937862 -19.790006 -158.453219 -69.963101 -170.828446 20.559946 -0.006739 3.013213 -10.095023 1.753817 -1.339310 -9.818408 -1.454181 16.383562 -138.058405 -82.214005 123.373559 3.667522 -7.520821 7.547181 2.607694 -14.517330 -7.668833 -1.973435 58.873073 -6.399866 -0.040399 -7.547248 9.097140 0.278012 -0.761697 0.116210 -5.412682 -11.261615 -0.766971 34.467924 73.231542 37.530862 0.674703 -10.330103 -7.292965 0.377800 0.972256 0.163060
